<svg width="137" height="40" viewBox="0 0 137 40" fill="none" xmlns="http://www.w3.org/2000/svg">
<path d="M135.689 34.8542C135.689 35.3516 135.588 35.8441 135.393 36.3036C135.198 36.763 134.912 37.1805 134.551 37.532C134.191 37.8835 133.763 38.1622 133.292 38.3522C132.821 38.5422 132.317 38.6397 131.807 38.6392H4.7876C3.7581 38.6402 2.77032 38.2421 2.0415 37.5323C1.31268 36.8225 0.902495 35.8592 0.901154 34.8542V4.67007C0.902495 3.66463 1.31252 2.7008 2.04119 1.99022C2.76987 1.27964 3.75763 0.880388 4.7876 0.880127H131.806C132.316 0.880127 132.821 0.978164 133.292 1.16864C133.763 1.35911 134.191 1.63829 134.551 1.99023C134.911 2.34218 135.197 2.75998 135.392 3.21979C135.587 3.67961 135.688 4.17241 135.688 4.67007L135.689 34.8542Z" fill="white"/>
<path d="M131.807 39.5191H4.78744C3.51922 39.5189 2.30289 39.0275 1.40536 38.1528C0.507835 37.2782 0.00241308 36.0916 0 34.8536L0 4.67047C0.00187615 3.43183 0.506965 2.2445 1.40446 1.36892C2.30196 0.493353 3.51859 0.00104546 4.78744 0L131.806 0C133.075 0.00156711 134.291 0.494042 135.188 1.3695C136.086 2.24496 136.591 3.43199 136.593 4.67047V34.8536C136.595 37.427 134.444 39.5191 131.807 39.5191Z" fill="#A6A6A6"/>
<path d="M135.689 34.8542C135.689 35.3516 135.588 35.8441 135.393 36.3036C135.198 36.763 134.912 37.1805 134.551 37.532C134.191 37.8835 133.763 38.1622 133.292 38.3522C132.821 38.5422 132.317 38.6397 131.807 38.6392H4.7876C3.7581 38.6402 2.77032 38.2421 2.0415 37.5323C1.31268 36.8225 0.902495 35.8592 0.901154 34.8542V4.67007C0.902495 3.66463 1.31252 2.7008 2.04119 1.99022C2.76987 1.27964 3.75763 0.880388 4.7876 0.880127H131.806C132.316 0.880127 132.821 0.978164 133.292 1.16864C133.763 1.35911 134.191 1.63829 134.551 1.99023C134.911 2.34218 135.197 2.75998 135.392 3.21979C135.587 3.67961 135.688 4.17241 135.688 4.67007L135.689 34.8542Z" fill="black"/>
<path d="M30.5007 19.5519C30.4714 16.3667 33.1723 14.8172 33.2958 14.745C31.7662 12.5679 29.3952 12.2705 28.562 12.2467C26.5707 12.0422 24.6392 13.4099 23.6248 13.4099C22.5901 13.4099 21.0281 12.2665 19.3445 12.3001C17.1781 12.3327 15.1513 13.5572 14.0398 15.4585C11.7458 19.3355 13.4567 25.0327 15.6545 28.1665C16.7539 29.7022 18.0386 31.4148 19.7201 31.3546C21.3652 31.2893 21.9797 30.3317 23.9649 30.3317C25.9319 30.3317 26.509 31.3546 28.2239 31.316C29.9895 31.2893 31.101 29.7743 32.162 28.2258C33.4325 26.4677 33.9427 24.7343 33.963 24.6453C33.9225 24.6315 30.5351 23.3685 30.5007 19.5519ZM27.2612 10.1852C28.146 9.10508 28.7514 7.63556 28.5833 6.14429C27.3027 6.19963 25.7011 7.00901 24.7789 8.06545C23.9629 8.99638 23.234 10.5222 23.4223 11.9572C24.8609 12.0619 26.3379 11.2486 27.2612 10.1852Z" fill="white"/>
<path d="M131.807 0H63.7711L90.4194 39.5191H131.807C133.075 39.5181 134.291 39.0261 135.189 38.1509C136.086 37.2758 136.592 36.0889 136.594 34.8506V4.67047C136.592 3.43191 136.087 2.24473 135.189 1.36921C134.292 0.493698 133.075 0.00130639 131.807 0Z" fill="url(#paint0_linear_27_681)"/>
<path d="M54.328 31.1342H52.029L50.7696 27.2711H46.3922L45.1925 31.1342H42.9542L47.2921 17.9825H49.9708L54.328 31.1342ZM50.39 25.6504L49.2511 22.2162C49.1306 21.8654 48.9038 21.0392 48.5718 19.7386H48.5313C48.3976 20.298 48.184 21.1242 47.8915 22.2162L46.7718 25.6504H50.39ZM65.4619 26.2759C65.4619 27.8887 65.0135 29.1636 64.1155 30.0995C63.3117 30.9326 62.3125 31.3486 61.121 31.3486C59.8342 31.3486 58.909 30.9009 58.3471 30.0036V34.9794H56.1887V24.7679C56.1887 23.7549 56.1614 22.7162 56.1088 21.6509H58.0069L58.1274 23.154H58.1679C58.8877 22.0215 59.98 21.4552 61.4459 21.4552C62.5919 21.4552 63.5486 21.897 64.3139 22.7815C65.0783 23.6679 65.4619 24.8321 65.4619 26.2759ZM63.2631 26.353C63.2631 25.43 63.0505 24.669 62.6233 24.0692C62.1566 23.4456 61.5299 23.1333 60.7444 23.1333C60.2119 23.1333 59.7279 23.3072 59.2957 23.6501C58.8624 23.996 58.5789 24.4477 58.4463 25.007C58.3871 25.2162 58.3535 25.4315 58.3461 25.6484V27.2306C58.3461 27.9194 58.5627 28.5015 58.996 28.9778C59.4293 29.4522 59.9922 29.6903 60.6846 29.6903C61.4976 29.6903 62.1303 29.383 62.5828 28.7732C63.0363 28.1615 63.2631 27.3551 63.2631 26.353ZM76.6353 26.2759C76.6353 27.8887 76.1869 29.1636 75.2889 30.0995C74.4841 30.9326 73.4859 31.3486 72.2933 31.3486C71.0066 31.3486 70.0813 30.9009 69.5195 30.0036V34.9794H67.3611V24.7679C67.3611 23.7549 67.3338 22.7162 67.2812 21.6509H69.1793L69.2998 23.154H69.3403C70.0591 22.0215 71.1514 21.4552 72.6183 21.4552C73.7633 21.4552 74.72 21.897 75.4873 22.7815C76.2506 23.6679 76.6353 24.8321 76.6353 26.2759ZM74.4355 26.353C74.4355 25.43 74.2219 24.669 73.7947 24.0692C73.328 23.4456 72.7033 23.1333 71.9178 23.1333C71.3853 23.1333 70.9013 23.3072 70.467 23.6501C70.0338 23.996 69.7513 24.4477 69.6187 25.007C69.5529 25.2679 69.5174 25.4804 69.5174 25.6484V27.2306C69.5174 27.9194 69.7351 28.5015 70.1664 28.9778C70.5997 29.4512 71.1625 29.6903 71.857 29.6903C72.6709 29.6903 73.3037 29.383 73.7552 28.7732C74.2087 28.1615 74.4355 27.3551 74.4355 26.353ZM89.1278 27.445C89.1278 28.5647 88.7269 29.4749 87.9302 30.1775C87.0535 30.9444 85.8296 31.3288 84.2604 31.3288C82.8107 31.3288 81.6485 31.0561 80.7718 30.5096L81.2709 28.7535C82.2175 29.301 83.2572 29.5737 84.389 29.5737C85.2029 29.5737 85.8356 29.3939 86.2872 29.0371C86.7397 28.6793 86.9685 28.201 86.9685 27.6041C86.9685 27.0695 86.7792 26.6218 86.4076 26.2571C86.0341 25.8935 85.4165 25.5545 84.5489 25.2432C82.1901 24.3844 81.0097 23.1283 81.0097 21.476C81.0097 20.3968 81.4268 19.5133 82.259 18.8225C83.0911 18.1327 84.1946 17.7878 85.5674 17.7878C86.7933 17.7878 87.8148 17.9964 88.6257 18.4124L88.0841 20.13C87.3208 19.7268 86.4593 19.5252 85.4955 19.5252C84.7342 19.5252 84.1369 19.708 83.7097 20.0717C83.3503 20.3968 83.1681 20.7931 83.1681 21.2635C83.1681 21.7823 83.3756 22.2132 83.7887 22.5512C84.147 22.8625 84.801 23.2015 85.7466 23.5652C86.9067 24.0217 87.7591 24.5534 88.3048 25.1641C88.8545 25.7749 89.1278 26.5368 89.1278 27.445ZM96.2822 23.2321H93.9031V27.8364C93.9031 29.0074 94.3222 29.5915 95.1625 29.5915C95.5482 29.5915 95.8681 29.5599 96.1212 29.4937L96.1809 31.0936C95.7557 31.2488 95.1959 31.3269 94.5024 31.3269C93.65 31.3269 92.9839 31.0729 92.503 30.5649C92.0242 30.057 91.7832 29.2061 91.7832 28.0083V23.2282H90.3659V21.647H91.7832V19.9106L93.9031 19.286V21.647H96.2822V23.2321ZM106.995 26.3145C106.995 27.7721 106.568 28.9689 105.715 29.9048C104.823 30.8683 103.637 31.3486 102.158 31.3486C100.73 31.3486 99.5956 30.8871 98.7493 29.9651C97.903 29.041 97.4798 27.8769 97.4798 26.4726C97.4798 25.0031 97.9171 23.7994 98.7888 22.8635C99.6624 21.9266 100.839 21.4582 102.318 21.4582C103.743 21.4582 104.888 21.9207 105.755 22.8437C106.583 23.7391 106.995 24.8953 106.995 26.3145ZM104.758 26.3629C104.758 25.4942 104.565 24.7491 104.18 24.1255C103.727 23.3724 103.079 22.9959 102.24 22.9959C101.375 22.9959 100.712 23.3724 100.261 24.1255C99.874 24.7491 99.6817 25.5071 99.6817 26.4024C99.6817 27.2721 99.874 28.0192 100.261 28.6408C100.727 29.3939 101.378 29.7704 102.222 29.7704C103.047 29.7704 103.694 29.3859 104.161 28.622C104.558 27.9836 104.758 27.2335 104.758 26.3629ZM114.014 23.5039C113.789 23.4643 113.561 23.4448 113.333 23.4456C112.574 23.4456 111.987 23.7243 111.574 24.2856C111.215 24.7797 111.035 25.4043 111.035 26.1583V31.1342H108.877V24.6374C108.879 23.6419 108.858 22.6465 108.814 21.6519H110.694L110.773 23.4663H110.833C111.062 22.8427 111.42 22.3397 111.912 21.9632C112.362 21.6342 112.91 21.456 113.472 21.4552C113.671 21.4552 113.852 21.4691 114.012 21.4938L114.014 23.5039ZM123.666 25.9439C123.672 26.2642 123.645 26.5842 123.587 26.8995H117.112C117.137 27.8364 117.451 28.5538 118.052 29.048C118.598 29.4887 119.303 29.7101 120.17 29.7101C121.128 29.7101 122.003 29.5619 122.79 29.2624L123.128 30.724C122.209 31.1154 121.123 31.3101 119.871 31.3101C118.365 31.3101 117.182 30.8772 116.322 30.0135C115.463 29.1488 115.033 27.9866 115.033 26.5309C115.033 25.1019 115.433 23.911 116.234 22.9613C117.072 21.9474 118.205 21.4404 119.63 21.4404C121.03 21.4404 122.09 21.9474 122.81 22.9613C123.38 23.7648 123.666 24.7609 123.666 25.9439ZM121.608 25.3974C121.624 24.7718 121.482 24.2332 121.189 23.7776C120.816 23.1906 120.241 22.8981 119.47 22.8981C118.765 22.8981 118.19 23.1837 117.752 23.7569C117.393 24.2125 117.179 24.7599 117.113 25.3954L121.608 25.3974Z" fill="white"/>
<path d="M45.7691 13.3323C45.1688 13.3323 44.6495 13.3037 44.2172 13.2552V6.89682C44.8218 6.80565 45.4327 6.76072 46.0445 6.76242C48.5197 6.76242 49.6596 7.95129 49.6596 9.88925C49.6596 12.1247 48.3132 13.3323 45.7691 13.3323ZM46.1316 7.57773C45.7975 7.57773 45.513 7.59749 45.2771 7.64493V12.4785C45.4047 12.4982 45.6497 12.5071 45.9939 12.5071C47.6157 12.5071 48.5389 11.6058 48.5389 9.91791C48.5389 8.4128 47.7038 7.57773 46.1316 7.57773ZM53.212 13.3807C51.817 13.3807 50.9129 12.3638 50.9129 10.9832C50.9129 9.54435 51.8362 8.51854 53.291 8.51854C54.6657 8.51854 55.59 9.48703 55.59 10.9071C55.59 12.3638 54.6374 13.3807 53.212 13.3807ZM53.2525 9.27554C52.4861 9.27554 51.9951 9.97522 51.9951 10.9536C51.9951 11.9132 52.4963 12.6129 53.2424 12.6129C53.9885 12.6129 54.4896 11.8648 54.4896 10.9338C54.4896 9.98511 53.9986 9.27554 53.2525 9.27554ZM63.5451 8.6144L62.0519 13.275H61.079L60.4605 11.2511C60.3067 10.756 60.1786 10.2536 60.0768 9.74595H60.0565C59.9786 10.2539 59.8308 10.7629 59.6739 11.2511L59.0158 13.275H58.0328L56.6277 8.6144H57.718L58.2586 10.8301C58.3862 11.3578 58.4935 11.8559 58.5826 12.3263H58.6028C58.6807 11.9339 58.8083 11.4438 58.9956 10.8399L59.6739 8.61539H60.5384L61.1873 10.7925C61.3443 11.3202 61.4718 11.8381 61.571 12.3273H61.5994C61.6682 11.848 61.7765 11.339 61.9233 10.7925L62.5034 8.61539L63.5451 8.6144ZM69.0422 13.275H67.9813V10.5988C67.9813 9.77461 67.6573 9.36152 67.0185 9.36152C66.3899 9.36152 65.9576 9.88925 65.9576 10.503V13.275H64.8966V9.94656C64.8966 9.53446 64.8865 9.09272 64.8571 8.61342H65.7905L65.8401 9.33286H65.8695C66.155 8.83478 66.7341 8.51854 67.383 8.51854C68.3852 8.51854 69.0432 9.26665 69.0432 10.4842L69.0422 13.275ZM71.9679 13.275H70.906V6.47583H71.9679V13.275ZM75.8362 13.3807C74.4422 13.3807 73.5371 12.3638 73.5371 10.9832C73.5371 9.54435 74.4604 8.51854 75.9141 8.51854C77.2899 8.51854 78.2132 9.48703 78.2132 10.9071C78.2142 12.3638 77.2606 13.3807 75.8362 13.3807ZM75.8756 9.27554C75.1093 9.27554 74.6183 9.97522 74.6183 10.9536C74.6183 11.9132 75.1204 12.6129 75.8645 12.6129C76.6116 12.6129 77.1117 11.8648 77.1117 10.9338C77.1127 9.98511 76.6228 9.27554 75.8756 9.27554ZM82.3962 13.275L82.3193 12.7384H82.291C81.967 13.1702 81.4942 13.3807 80.8949 13.3807C80.0395 13.3807 79.4321 12.7957 79.4321 12.009C79.4321 10.8587 80.4535 10.2638 82.2221 10.2638V10.1778C82.2221 9.56411 81.889 9.25677 81.231 9.25677C80.7603 9.25677 80.3472 9.37239 79.9838 9.60265L79.7682 8.92175C80.2095 8.65295 80.7603 8.51854 81.4072 8.51854C82.6544 8.51854 83.2841 9.16091 83.2841 10.4466V12.1632C83.2841 12.6336 83.3053 12.9983 83.3529 13.276L82.3962 13.275ZM82.2505 10.9536C81.0721 10.9536 80.4809 11.2323 80.4809 11.8934C80.4809 12.3826 80.7856 12.6218 81.2087 12.6218C81.7483 12.6218 82.2505 12.2195 82.2505 11.673V10.9536ZM88.436 13.275L88.3864 12.5269H88.357C88.0523 13.0922 87.54 13.3807 86.8243 13.3807C85.6732 13.3807 84.8208 12.3925 84.8208 11.002C84.8208 9.54435 85.7046 8.51756 86.9114 8.51756C87.5502 8.51756 88.0027 8.72805 88.2578 9.15102H88.2791V6.47583H89.341V12.0189C89.341 12.4696 89.3522 12.8916 89.3805 13.275H88.436ZM88.2791 10.5326C88.2791 9.88035 87.8367 9.32397 87.1614 9.32397C86.3748 9.32397 85.8939 10.0049 85.8939 10.9635C85.8939 11.9033 86.393 12.5467 87.1402 12.5467C87.8073 12.5467 88.2791 11.9804 88.2791 11.3094V10.5326ZM96.0742 13.3807C94.6802 13.3807 93.7762 12.3638 93.7762 10.9832C93.7762 9.54435 94.6994 8.51854 96.1532 8.51854C97.529 8.51854 98.4522 9.48703 98.4522 10.9071C98.4533 12.3638 97.5006 13.3807 96.0742 13.3807ZM96.1137 9.27554C95.3484 9.27554 94.8574 9.97522 94.8574 10.9536C94.8574 11.9132 95.3585 12.6129 96.1036 12.6129C96.8507 12.6129 97.3508 11.8648 97.3508 10.9338C97.3528 9.98511 96.8618 9.27554 96.1137 9.27554ZM104.158 13.275H103.096V10.5988C103.096 9.77461 102.772 9.36152 102.133 9.36152C101.504 9.36152 101.073 9.88925 101.073 10.503V13.275H100.011V9.94656C100.011 9.53446 100.001 9.09272 99.9718 8.61342H100.905L100.955 9.33286H100.984C101.269 8.83478 101.849 8.51756 102.497 8.51756C103.499 8.51756 104.158 9.26566 104.158 10.4832V13.275ZM111.296 9.39117H110.129V11.6543C110.129 12.2304 110.333 12.518 110.746 12.518C110.934 12.518 111.091 12.4982 111.217 12.4696L111.246 13.2562C111.041 13.3333 110.766 13.3718 110.423 13.3718C109.587 13.3718 109.087 12.9212 109.087 11.7412V9.39117H108.391V8.6144H109.087V7.76056L110.129 7.45321V8.61342H111.296V9.39117ZM116.913 13.275H115.853V10.6186C115.853 9.78449 115.53 9.36251 114.89 9.36251C114.34 9.36251 113.828 9.72717 113.828 10.4654V13.275H112.768V6.47583H113.828V9.27554H113.849C114.183 8.76758 114.667 8.51756 115.285 8.51756C116.295 8.51756 116.913 9.28444 116.913 10.503V13.275ZM122.667 11.1937H119.483C119.503 12.0762 120.102 12.5743 120.987 12.5743C121.458 12.5743 121.891 12.4972 122.274 12.3539L122.439 13.0734C121.988 13.2651 121.456 13.361 120.837 13.361C119.344 13.361 118.46 12.4399 118.46 11.0119C118.46 9.58289 119.366 8.50866 120.718 8.50866C121.938 8.50866 122.703 9.39117 122.703 10.7243C122.71 10.8816 122.698 11.0392 122.667 11.1937ZM121.694 10.4555C121.694 9.73607 121.322 9.22811 120.644 9.22811C120.035 9.22811 119.553 9.74595 119.484 10.4555H121.694Z" fill="white"/>
<defs>
<linearGradient id="paint0_linear_27_681" x1="100.181" y1="39.6241" x2="100.181" y2="-102.901" gradientUnits="userSpaceOnUse">
<stop stop-color="#1A1A1A" stop-opacity="0.1"/>
<stop offset="0.123" stop-color="#212121" stop-opacity="0.151"/>
<stop offset="0.308" stop-color="#353535" stop-opacity="0.227"/>
<stop offset="0.532" stop-color="#575757" stop-opacity="0.318"/>
<stop offset="0.783" stop-color="#858585" stop-opacity="0.421"/>
<stop offset="1" stop-color="#B3B3B3" stop-opacity="0.51"/>
</linearGradient>
</defs>
</svg>
