<svg width="137" height="40" viewBox="0 0 137 40" fill="none" xmlns="http://www.w3.org/2000/svg">
<path d="M131.5 39.5086H5.05771C2.22539 39.5086 0 37.3356 0 34.57V4.93858C0 2.17297 2.22539 0 5.05771 0H131.5C134.333 0 136.558 2.17297 136.558 4.93858V34.57C136.558 37.3356 134.333 39.5086 131.5 39.5086Z" fill="black"/>
<path d="M131.5 0.790172C133.827 0.790172 135.749 2.66683 135.749 4.93858V34.57C135.749 36.8418 133.827 38.7184 131.5 38.7184H5.05771C2.73116 38.7184 0.809233 36.8418 0.809233 34.57V4.93858C0.809233 2.66683 2.73116 0.790172 5.05771 0.790172H131.5ZM131.5 0H5.05771C2.22539 0 0 2.27174 0 4.93858V34.57C0 37.3356 2.22539 39.5086 5.05771 39.5086H131.5C134.333 39.5086 136.558 37.3356 136.558 34.57V4.93858C136.558 2.27174 134.333 0 131.5 0Z" fill="#A6A6A6"/>
<path d="M47.9474 10.0749C47.9474 10.8651 47.7451 11.5565 47.2393 12.0503C46.6324 12.6429 45.9243 12.9393 45.0139 12.9393C44.1035 12.9393 43.3954 12.6429 42.7885 12.0503C42.1816 11.4577 41.8781 10.7663 41.8781 9.87735C41.8781 8.9884 42.1816 8.297 42.7885 7.70437C43.3954 7.11174 44.1035 6.81543 45.0139 6.81543C45.4185 6.81543 45.8231 6.9142 46.2277 7.11174C46.6324 7.30929 46.9358 7.50683 47.1381 7.80314L46.6324 8.297C46.2277 7.80314 45.722 7.6056 45.0139 7.6056C44.407 7.6056 43.8 7.80314 43.3954 8.297C42.8897 8.69209 42.6873 9.28472 42.6873 9.97612C42.6873 10.6675 42.8897 11.2601 43.3954 11.6552C43.9012 12.0503 44.407 12.3466 45.0139 12.3466C45.722 12.3466 46.2277 12.1491 46.7335 11.6552C47.037 11.3589 47.2393 10.9638 47.2393 10.47H45.0139V9.6798H47.9474V10.0749ZM52.6005 7.6056H49.8693V9.48226H52.3981V10.1737H49.8693V12.0503H52.6005V12.8405H49.0601V6.9142H52.6005V7.6056ZM55.9385 12.8405H55.1293V7.6056H53.4097V6.9142H57.6582V7.6056H55.9385V12.8405ZM60.5916 12.8405V6.9142H61.4009V12.8405H60.5916ZM64.8401 12.8405H64.0309V7.6056H62.3113V6.9142H66.4586V7.6056H64.739V12.8405H64.8401ZM74.4497 12.0503C73.8428 12.6429 73.1347 12.9393 72.2244 12.9393C71.314 12.9393 70.6059 12.6429 69.999 12.0503C69.392 11.4577 69.0886 10.7663 69.0886 9.87735C69.0886 8.9884 69.392 8.297 69.999 7.70437C70.6059 7.11174 71.314 6.81543 72.2244 6.81543C73.1347 6.81543 73.8428 7.11174 74.4497 7.70437C75.0567 8.297 75.3601 8.9884 75.3601 9.87735C75.3601 10.7663 75.0567 11.4577 74.4497 12.0503ZM70.6059 11.5565C71.0105 11.9515 71.6174 12.2479 72.2244 12.2479C72.8313 12.2479 73.4382 12.0503 73.8428 11.5565C74.2474 11.1614 74.5509 10.5687 74.5509 9.87735C74.5509 9.18595 74.3486 8.59332 73.8428 8.19823C73.4382 7.80314 72.8313 7.50683 72.2244 7.50683C71.6174 7.50683 71.0105 7.70437 70.6059 8.19823C70.2013 8.59332 69.8978 9.18595 69.8978 9.87735C69.8978 10.5687 70.1001 11.1614 70.6059 11.5565ZM76.4728 12.8405V6.9142H77.3832L80.3167 11.5565V6.9142H81.1259V12.8405H80.3167L77.1809 8.00069V12.8405H76.4728Z" fill="white"/>
<path d="M68.8862 21.5324C66.4585 21.5324 64.5366 23.3103 64.5366 25.7796C64.5366 28.1501 66.4585 30.0267 68.8862 30.0267C71.3139 30.0267 73.2359 28.2489 73.2359 25.7796C73.2359 23.2115 71.3139 21.5324 68.8862 21.5324ZM68.8862 28.2489C67.5712 28.2489 66.4585 27.1624 66.4585 25.6808C66.4585 24.1992 67.5712 23.1127 68.8862 23.1127C70.2012 23.1127 71.3139 24.1005 71.3139 25.6808C71.3139 27.1624 70.2012 28.2489 68.8862 28.2489ZM59.4789 21.5324C57.0512 21.5324 55.1293 23.3103 55.1293 25.7796C55.1293 28.1501 57.0512 30.0267 59.4789 30.0267C61.9066 30.0267 63.8285 28.2489 63.8285 25.7796C63.8285 23.2115 61.9066 21.5324 59.4789 21.5324ZM59.4789 28.2489C58.1639 28.2489 57.0512 27.1624 57.0512 25.6808C57.0512 24.1992 58.1639 23.1127 59.4789 23.1127C60.7939 23.1127 61.9066 24.1005 61.9066 25.6808C61.9066 27.1624 60.7939 28.2489 59.4789 28.2489ZM48.2508 22.8164V24.5943H52.6004C52.4993 25.582 52.0946 26.3722 51.5889 26.8661C50.982 27.4587 49.9704 28.1501 48.2508 28.1501C45.5196 28.1501 43.4965 26.0759 43.4965 23.4091C43.4965 20.7422 45.6208 18.668 48.2508 18.668C49.667 18.668 50.7796 19.2607 51.5889 19.9521L52.9039 18.668C51.7912 17.6803 50.375 16.8901 48.3519 16.8901C44.7104 16.8901 41.5746 19.8533 41.5746 23.4091C41.5746 26.9648 44.7104 29.928 48.3519 29.928C50.375 29.928 51.7912 29.3353 53.005 28.0513C54.2189 26.8661 54.6235 25.1869 54.6235 23.9029C54.6235 23.5078 54.6235 23.1127 54.5224 22.8164H48.2508ZM94.1748 24.1992C93.7702 23.2115 92.7586 21.5324 90.5332 21.5324C88.3078 21.5324 86.4871 23.2115 86.4871 25.7796C86.4871 28.1501 88.3078 30.0267 90.7355 30.0267C92.6575 30.0267 93.8713 28.8415 94.2759 28.1501L92.8598 27.1624C92.354 27.8538 91.7471 28.3476 90.7355 28.3476C89.724 28.3476 89.1171 27.9525 88.6113 27.0636L94.3771 24.6931L94.1748 24.1992ZM88.3078 25.582C88.3078 24.0017 89.6228 23.1127 90.5332 23.1127C91.2413 23.1127 91.9494 23.5078 92.1517 24.0017L88.3078 25.582ZM83.5536 29.6317H85.4755V17.2852H83.5536V29.6317ZM80.519 22.4213C80.0132 21.9275 79.204 21.4336 78.1924 21.4336C76.0682 21.4336 74.0451 23.3103 74.0451 25.6808C74.0451 28.0513 75.967 29.8292 78.1924 29.8292C79.204 29.8292 80.0132 29.3353 80.4178 28.8415H80.519V29.4341C80.519 31.0145 79.6086 31.9034 78.1924 31.9034C77.0797 31.9034 76.2705 31.1132 76.0682 30.4218L74.4497 31.1132C74.9555 32.1997 76.1693 33.5825 78.2936 33.5825C80.519 33.5825 82.3397 32.2985 82.3397 29.2366V21.7299H80.519V22.4213ZM78.2936 28.2489C76.9786 28.2489 75.8659 27.1624 75.8659 25.6808C75.8659 24.1992 76.9786 23.1127 78.2936 23.1127C79.6086 23.1127 80.6201 24.1992 80.6201 25.6808C80.6201 27.1624 79.6086 28.2489 78.2936 28.2489ZM102.975 17.2852H98.4233V29.6317H100.345V24.9894H102.975C105.099 24.9894 107.123 23.5078 107.123 21.1373C107.123 18.7668 105.099 17.2852 102.975 17.2852ZM103.076 23.2115H100.345V18.9643H103.076C104.493 18.9643 105.302 20.1496 105.302 21.0385C105.201 22.125 104.391 23.2115 103.076 23.2115ZM114.709 21.4336C113.293 21.4336 111.877 22.0263 111.371 23.3103L113.091 24.0017C113.495 23.3103 114.102 23.1127 114.81 23.1127C115.822 23.1127 116.732 23.7054 116.833 24.6931V24.7919C116.53 24.5943 115.721 24.298 114.911 24.298C113.091 24.298 111.27 25.2857 111.27 27.0636C111.27 28.7427 112.787 29.8292 114.406 29.8292C115.721 29.8292 116.328 29.2366 116.833 28.6439H116.934V29.6317H118.755V24.8906C118.553 22.7177 116.833 21.4336 114.709 21.4336ZM114.507 28.2489C113.9 28.2489 112.989 27.9525 112.989 27.1624C112.989 26.1747 114.102 25.8783 115.013 25.8783C115.822 25.8783 116.226 26.0759 116.732 26.2734C116.53 27.4587 115.518 28.2489 114.507 28.2489ZM125.128 21.7299L123.004 27.0636H122.903L120.677 21.7299H118.654L121.992 29.2366L120.07 33.385H121.992L127.151 21.7299H125.128ZM108.134 29.6317H110.056V17.2852H108.134V29.6317Z" fill="white"/>
<path d="M10.5202 7.40723C10.2168 7.70354 10.1156 8.1974 10.1156 8.79003V30.6185C10.1156 31.2112 10.3179 31.705 10.6214 32.0013L10.7225 32.1001L23.2657 19.8524V19.6549L10.5202 7.40723Z" fill="url(#paint0_linear_27_691)"/>
<path d="M27.312 24.0013L23.1647 19.9517V19.6553L27.312 15.6057L27.4132 15.7045L32.3697 18.4701C33.7859 19.2603 33.7859 20.5443 32.3697 21.3345L27.312 24.0013Z" fill="url(#paint1_linear_27_691)"/>
<path d="M27.4129 23.9026L23.1644 19.7542L10.5201 32.1006C11.0259 32.5944 11.734 32.5944 12.6444 32.1994L27.4129 23.9026Z" fill="url(#paint2_linear_27_691)"/>
<path d="M27.4129 15.6057L12.6444 7.40769C11.734 6.91384 11.0259 7.01261 10.5201 7.50647L23.1644 19.7541L27.4129 15.6057Z" fill="url(#paint3_linear_27_691)"/>
<path opacity="0.2" d="M27.3115 23.8042L12.6442 31.9035C11.8349 32.3973 11.1268 32.2985 10.6211 31.9035L10.5199 32.0022L10.6211 32.101C11.1268 32.4961 11.8349 32.5949 12.6442 32.101L27.3115 23.8042Z" fill="black"/>
<path opacity="0.12" d="M10.5202 31.903C10.2167 31.6067 10.1156 31.1129 10.1156 30.5202V30.619C10.1156 31.2116 10.3179 31.7055 10.6213 32.0018V31.903H10.5202ZM32.3695 21.0382L27.3118 23.8038L27.4129 23.9026L32.3695 21.137C33.0776 20.7419 33.381 20.248 33.381 19.7542C33.381 20.248 32.9764 20.6431 32.3695 21.0382Z" fill="black"/>
<path opacity="0.25" d="M12.6445 7.50657L32.3695 18.4702C32.9765 18.8653 33.3811 19.2604 33.3811 19.7542C33.3811 19.2604 33.0776 18.7665 32.3695 18.3714L12.6445 7.4078C11.2283 6.61763 10.1156 7.21026 10.1156 8.7906V8.88937C10.1156 7.4078 11.2283 6.7164 12.6445 7.50657Z" fill="white"/>
<defs>
<linearGradient id="paint0_linear_27_691" x1="22.0518" y1="8.60236" x2="5.47967" y2="25.5733" gradientUnits="userSpaceOnUse">
<stop stop-color="#00A0FF"/>
<stop offset="0.007" stop-color="#00A1FF"/>
<stop offset="0.26" stop-color="#00BEFF"/>
<stop offset="0.512" stop-color="#00D2FF"/>
<stop offset="0.76" stop-color="#00DFFF"/>
<stop offset="1" stop-color="#00E3FF"/>
</linearGradient>
<linearGradient id="paint1_linear_27_691" x1="34.2249" y1="19.7551" x2="9.74863" y2="19.7551" gradientUnits="userSpaceOnUse">
<stop stop-color="#FFE000"/>
<stop offset="0.409" stop-color="#FFBD00"/>
<stop offset="0.775" stop-color="#FFA500"/>
<stop offset="1" stop-color="#FF9C00"/>
</linearGradient>
<linearGradient id="paint2_linear_27_691" x1="25.1136" y1="22.0219" x2="2.6416" y2="45.0361" gradientUnits="userSpaceOnUse">
<stop stop-color="#FF3A44"/>
<stop offset="1" stop-color="#C31162"/>
</linearGradient>
<linearGradient id="paint3_linear_27_691" x1="7.38131" y1="0.173669" x2="17.4166" y2="10.451" gradientUnits="userSpaceOnUse">
<stop stop-color="#32A071"/>
<stop offset="0.069" stop-color="#2DA771"/>
<stop offset="0.476" stop-color="#15CF74"/>
<stop offset="0.801" stop-color="#06E775"/>
<stop offset="1" stop-color="#00F076"/>
</linearGradient>
</defs>
</svg>
